# xmcd CD database file
#
# Track frame offsets:
#	150
#	22656
#	44094
#	63822
#	79669
#	99769
#	119070
#	136607
#	150880
#	172838
#	194067
#	210944
#	235844
#	251980
#	272278
#
# Disc length: 3828 seconds
#
# Revision: 1
# Processed by: cddbd v1.5.2PL0 Copyright (c) Steve Scherf et al.
# Submitted via: CDex 1.51
#
DISCID=b50ef20f
DTITLE=Казарян Армен - Старое кафе
DYEAR=2004
DGENRE=Инструментал
TTITLE0=Я летаю
TTITLE1=Нет вестей
TTITLE2=Ключи
TTITLE3=Танго
TTITLE4=Вернись
TTITLE5=Ангел
TTITLE6=Дурман
TTITLE7=Бесконечность
TTITLE8=Кто-то
TTITLE9=Легенда
TTITLE10=Разговор
TTITLE11=Кафе
TTITLE12=Воспоминания
TTITLE13=Детство
TTITLE14=Безумный мир
EXTD=YEAR: 2004
EXTT0=
EXTT1=
EXTT2=
EXTT3=
EXTT4=
EXTT5=
EXTT6=
EXTT7=
EXTT8=
EXTT9=
EXTT10=
EXTT11=
EXTT12=
EXTT13=
EXTT14=
PLAYORDER=
